<svg width="110" height="24" viewBox="0 0 110 24" fill="none" xmlns="http://www.w3.org/2000/svg">
<path d="M0.274 16.62V13.032L8.49 1.28H13.456V12.772H15.588V16.62H13.456V20H9.01V16.62H0.274ZM9.322 6.168L4.954 12.772H9.322V6.168ZM18.0257 10.25C18.0257 7.26867 18.5977 4.92 19.7417 3.204C20.903 1.488 22.7664 0.629998 25.3317 0.629998C27.897 0.629998 29.7517 1.488 30.8957 3.204C32.057 4.92 32.6377 7.26867 32.6377 10.25C32.6377 13.266 32.057 15.632 30.8957 17.348C29.7517 19.064 27.897 19.922 25.3317 19.922C22.7664 19.922 20.903 19.064 19.7417 17.348C18.5977 15.632 18.0257 13.266 18.0257 10.25ZM28.2697 10.25C28.2697 8.49933 28.079 7.156 27.6977 6.22C27.3164 5.26667 26.5277 4.79 25.3317 4.79C24.1357 4.79 23.347 5.26667 22.9657 6.22C22.5844 7.156 22.3937 8.49933 22.3937 10.25C22.3937 11.4287 22.463 12.408 22.6017 13.188C22.7404 13.9507 23.0177 14.5747 23.4337 15.06C23.867 15.528 24.4997 15.762 25.3317 15.762C26.1637 15.762 26.7877 15.528 27.2037 15.06C27.637 14.5747 27.923 13.9507 28.0617 13.188C28.2004 12.408 28.2697 11.4287 28.2697 10.25ZM40.4726 15.892L37.5866 23.354H34.7526L36.2606 15.892H40.4726ZM42.9715 10.25C42.9715 7.26867 43.5435 4.92 44.6875 3.204C45.8488 1.488 47.7121 0.629998 50.2775 0.629998C52.8428 0.629998 54.6975 1.488 55.8415 3.204C57.0028 4.92 57.5835 7.26867 57.5835 10.25C57.5835 13.266 57.0028 15.632 55.8415 17.348C54.6975 19.064 52.8428 19.922 50.2775 19.922C47.7121 19.922 45.8488 19.064 44.6875 17.348C43.5435 15.632 42.9715 13.266 42.9715 10.25ZM53.2155 10.25C53.2155 8.49933 53.0248 7.156 52.6435 6.22C52.2622 5.26667 51.4735 4.79 50.2775 4.79C49.0815 4.79 48.2928 5.26667 47.9115 6.22C47.5302 7.156 47.3395 8.49933 47.3395 10.25C47.3395 11.4287 47.4088 12.408 47.5475 13.188C47.6862 13.9507 47.9635 14.5747 48.3795 15.06C48.8128 15.528 49.4455 15.762 50.2775 15.762C51.1095 15.762 51.7335 15.528 52.1495 15.06C52.5828 14.5747 52.8688 13.9507 53.0075 13.188C53.1462 12.408 53.2155 11.4287 53.2155 10.25ZM60.1924 10.25C60.1924 7.26867 60.7644 4.92 61.9084 3.204C63.0698 1.488 64.9331 0.629998 67.4984 0.629998C70.0638 0.629998 71.9184 1.488 73.0624 3.204C74.2238 4.92 74.8044 7.26867 74.8044 10.25C74.8044 13.266 74.2238 15.632 73.0624 17.348C71.9184 19.064 70.0638 19.922 67.4984 19.922C64.9331 19.922 63.0698 19.064 61.9084 17.348C60.7644 15.632 60.1924 13.266 60.1924 10.25ZM70.4364 10.25C70.4364 8.49933 70.2458 7.156 69.8644 6.22C69.4831 5.26667 68.6944 4.79 67.4984 4.79C66.3024 4.79 65.5138 5.26667 65.1324 6.22C64.7511 7.156 64.5604 8.49933 64.5604 10.25C64.5604 11.4287 64.6298 12.408 64.7684 13.188C64.9071 13.9507 65.1844 14.5747 65.6004 15.06C66.0338 15.528 66.6664 15.762 67.4984 15.762C68.3304 15.762 68.9544 15.528 69.3704 15.06C69.8038 14.5747 70.0898 13.9507 70.2284 13.188C70.3671 12.408 70.4364 11.4287 70.4364 10.25ZM77.4134 10.25C77.4134 7.26867 77.9854 4.92 79.1294 3.204C80.2907 1.488 82.154 0.629998 84.7194 0.629998C87.2847 0.629998 89.1394 1.488 90.2834 3.204C91.4447 4.92 92.0254 7.26867 92.0254 10.25C92.0254 13.266 91.4447 15.632 90.2834 17.348C89.1394 19.064 87.2847 19.922 84.7194 19.922C82.154 19.922 80.2907 19.064 79.1294 17.348C77.9854 15.632 77.4134 13.266 77.4134 10.25ZM87.6574 10.25C87.6574 8.49933 87.4667 7.156 87.0854 6.22C86.704 5.26667 85.9154 4.79 84.7194 4.79C83.5234 4.79 82.7347 5.26667 82.3534 6.22C81.972 7.156 81.7814 8.49933 81.7814 10.25C81.7814 11.4287 81.8507 12.408 81.9894 13.188C82.128 13.9507 82.4054 14.5747 82.8214 15.06C83.2547 15.528 83.8874 15.762 84.7194 15.762C85.5514 15.762 86.1754 15.528 86.5914 15.06C87.0247 14.5747 87.3107 13.9507 87.4494 13.188C87.588 12.408 87.6574 11.4287 87.6574 10.25ZM109.376 11.862H104.124V17.244H101.368V11.862H96.1163V9.366H101.368V3.984H104.124V9.366H109.376V11.862Z" fill="#000339"/>
</svg>
