<svg width="47" height="15" viewBox="0 0 47 15" fill="none" xmlns="http://www.w3.org/2000/svg">
<path d="M4.256 11.098C3.60267 11.098 3.01467 10.986 2.492 10.762C1.96933 10.5287 1.55867 10.202 1.26 9.782C0.961333 9.362 0.812 8.872 0.812 8.312H2.52C2.55733 8.732 2.72067 9.07733 3.01 9.348C3.30867 9.61867 3.724 9.754 4.256 9.754C4.80667 9.754 5.236 9.62333 5.544 9.362C5.852 9.09133 6.006 8.746 6.006 8.326C6.006 7.99933 5.908 7.73333 5.712 7.528C5.52533 7.32267 5.28733 7.164 4.998 7.052C4.718 6.94 4.326 6.81867 3.822 6.688C3.18733 6.52 2.66933 6.352 2.268 6.184C1.876 6.00667 1.54 5.736 1.26 5.372C0.98 5.008 0.84 4.52267 0.84 3.916C0.84 3.356 0.98 2.866 1.26 2.446C1.54 2.026 1.932 1.704 2.436 1.48C2.94 1.256 3.52333 1.144 4.186 1.144C5.12867 1.144 5.89867 1.382 6.496 1.858C7.10267 2.32467 7.43867 2.96867 7.504 3.79H5.74C5.712 3.43533 5.544 3.132 5.236 2.88C4.928 2.628 4.522 2.502 4.018 2.502C3.56067 2.502 3.18733 2.61867 2.898 2.852C2.60867 3.08533 2.464 3.42133 2.464 3.86C2.464 4.15867 2.55267 4.406 2.73 4.602C2.91667 4.78867 3.15 4.938 3.43 5.05C3.71 5.162 4.09267 5.28333 4.578 5.414C5.222 5.59133 5.74467 5.76867 6.146 5.946C6.55667 6.12333 6.902 6.39867 7.182 6.772C7.47133 7.136 7.616 7.626 7.616 8.242C7.616 8.73667 7.48067 9.20333 7.21 9.642C6.94867 10.0807 6.56133 10.4353 6.048 10.706C5.544 10.9673 4.94667 11.098 4.256 11.098ZM10.3112 2.264C10.0219 2.264 9.77922 2.166 9.58322 1.97C9.38722 1.774 9.28922 1.53133 9.28922 1.242C9.28922 0.952666 9.38722 0.71 9.58322 0.514C9.77922 0.318 10.0219 0.219999 10.3112 0.219999C10.5912 0.219999 10.8292 0.318 11.0252 0.514C11.2212 0.71 11.3192 0.952666 11.3192 1.242C11.3192 1.53133 11.2212 1.774 11.0252 1.97C10.8292 2.166 10.5912 2.264 10.3112 2.264ZM11.0952 3.286V11H9.49922V3.286H11.0952ZM16.2986 3.16C16.896 3.16 17.4233 3.28133 17.8806 3.524C18.3473 3.75733 18.7113 4.05133 18.9726 4.406V3.286H20.5826V11.126C20.5826 11.8353 20.4333 12.4653 20.1346 13.016C19.836 13.576 19.402 14.0147 18.8326 14.332C18.2726 14.6493 17.6006 14.808 16.8166 14.808C15.7713 14.808 14.9033 14.5607 14.2126 14.066C13.522 13.5807 13.13 12.918 13.0366 12.078H14.6186C14.74 12.4793 14.9966 12.8013 15.3886 13.044C15.79 13.296 16.266 13.422 16.8166 13.422C17.4606 13.422 17.9786 13.226 18.3706 12.834C18.772 12.442 18.9726 11.8727 18.9726 11.126V9.838C18.702 10.202 18.3333 10.51 17.8666 10.762C17.4093 11.0047 16.8866 11.126 16.2986 11.126C15.6266 11.126 15.0106 10.958 14.4506 10.622C13.9 10.2767 13.4613 9.80067 13.1346 9.194C12.8173 8.578 12.6586 7.88267 12.6586 7.108C12.6586 6.33333 12.8173 5.64733 13.1346 5.05C13.4613 4.45267 13.9 3.99067 14.4506 3.664C15.0106 3.328 15.6266 3.16 16.2986 3.16ZM18.9726 7.136C18.9726 6.604 18.8606 6.142 18.6366 5.75C18.422 5.358 18.1373 5.05933 17.7826 4.854C17.428 4.64867 17.0453 4.546 16.6346 4.546C16.224 4.546 15.8413 4.64867 15.4866 4.854C15.132 5.05 14.8426 5.344 14.6186 5.736C14.404 6.11867 14.2966 6.576 14.2966 7.108C14.2966 7.64 14.404 8.10667 14.6186 8.508C14.8426 8.90933 15.132 9.21733 15.4866 9.432C15.8506 9.63733 16.2333 9.74 16.6346 9.74C17.0453 9.74 17.428 9.63733 17.7826 9.432C18.1373 9.22667 18.422 8.928 18.6366 8.536C18.8606 8.13467 18.9726 7.668 18.9726 7.136ZM26.5709 3.16C27.1776 3.16 27.7189 3.286 28.1949 3.538C28.6802 3.79 29.0582 4.16333 29.3289 4.658C29.5996 5.15267 29.7349 5.75 29.7349 6.45V11H28.1529V6.688C28.1529 5.99733 27.9802 5.47 27.6349 5.106C27.2896 4.73267 26.8182 4.546 26.2209 4.546C25.6236 4.546 25.1476 4.73267 24.7929 5.106C24.4476 5.47 24.2749 5.99733 24.2749 6.688V11H22.6789V3.286H24.2749V4.168C24.5362 3.85067 24.8676 3.60333 25.2689 3.426C25.6796 3.24867 26.1136 3.16 26.5709 3.16ZM36.2194 2.264C35.9301 2.264 35.6874 2.166 35.4914 1.97C35.2954 1.774 35.1974 1.53133 35.1974 1.242C35.1974 0.952666 35.2954 0.71 35.4914 0.514C35.6874 0.318 35.9301 0.219999 36.2194 0.219999C36.4994 0.219999 36.7374 0.318 36.9334 0.514C37.1294 0.71 37.2274 0.952666 37.2274 1.242C37.2274 1.53133 37.1294 1.774 36.9334 1.97C36.7374 2.166 36.4994 2.264 36.2194 2.264ZM37.0034 3.286V11H35.4074V3.286H37.0034ZM42.9908 3.16C43.5975 3.16 44.1388 3.286 44.6148 3.538C45.1002 3.79 45.4782 4.16333 45.7488 4.658C46.0195 5.15267 46.1548 5.75 46.1548 6.45V11H44.5728V6.688C44.5728 5.99733 44.4002 5.47 44.0548 5.106C43.7095 4.73267 43.2382 4.546 42.6408 4.546C42.0435 4.546 41.5675 4.73267 41.2128 5.106C40.8675 5.47 40.6948 5.99733 40.6948 6.688V11H39.0988V3.286H40.6948V4.168C40.9562 3.85067 41.2875 3.60333 41.6888 3.426C42.0995 3.24867 42.5335 3.16 42.9908 3.16Z" fill="#0F1B4C"/>
</svg>
